<svg width="36" height="36" viewBox="0 0 36 36" fill="none" xmlns="http://www.w3.org/2000/svg">
<path d="M18 0C8.07613 0 0.000335693 8.07422 0.000335693 17.9994C0.000335693 27.9244 8.0756 36 18 36C27.9261 36 35.9997 27.925 35.9997 17.9994C35.9997 8.07422 27.9266 0 18 0ZM25.7902 14.3115L16.3632 23.7385C16.0801 24.0213 15.7071 24.164 15.3376 24.164C14.9652 24.164 14.5956 24.0214 14.3116 23.7385L10.2117 19.6386C9.64485 19.0712 9.64485 18.1536 10.2117 17.5868C10.7784 17.0201 11.6961 17.0201 12.263 17.5868L15.3376 20.6625L23.7402 12.2594C24.3058 11.6933 25.2234 11.6933 25.7902 12.2594C26.3571 12.8271 26.3571 13.7447 25.7902 14.3115Z" fill="#7AC600"/>
</svg>
