<svg width="36" height="36" viewBox="0 0 36 36" fill="none" xmlns="http://www.w3.org/2000/svg">
<path fill-rule="evenodd" clip-rule="evenodd" d="M2.15199 17.6091C2.15199 26.1455 9.07211 33.0656 17.6085 33.0656C26.1449 33.0656 33.065 26.1455 33.065 17.6091C33.065 9.07271 26.1449 2.15259 17.6085 2.15259C9.07211 2.15259 2.15199 9.07271 2.15199 17.6091ZM17.6085 35.0222C7.99155 35.0222 0.195465 27.2261 0.195465 17.6091C0.195465 7.99216 7.99155 0.196072 17.6085 0.196072C27.2255 0.196072 35.0216 7.99216 35.0216 17.6091C35.0216 27.2261 27.2255 35.0222 17.6085 35.0222ZM17.6093 28.1338C18.1616 28.1338 18.6093 27.6861 18.6093 27.1338V15.4573C18.6093 14.905 18.1616 14.4573 17.6093 14.4573C17.057 14.4573 16.6093 14.905 16.6093 15.4573V27.1338C16.6093 27.6861 17.057 28.1338 17.6093 28.1338ZM17.6093 10.8322C18.1496 10.8322 18.5875 10.3942 18.5875 9.85393V8.09306C18.5875 7.55278 18.1496 7.1148 17.6093 7.1148C17.069 7.1148 16.631 7.55278 16.631 8.09306V9.85393C16.631 10.3942 17.069 10.8322 17.6093 10.8322Z" fill="#0FAE2A"/>
</svg>
